<?xml version="1.0" encoding="UTF-8"?>
<svg width="2145px" height="380px" viewBox="0 0 2145 380" version="1.1" xmlns="http://www.w3.org/2000/svg" xmlns:xlink="http://www.w3.org/1999/xlink">
    <!-- Generator: Sketch 55.2 (78181) - https://sketchapp.com -->
    <title>codewhiz</title>
    <desc>Created with Sketch.</desc>
    <g id="Welcome" stroke="none" stroke-width="1" fill="none" fill-rule="evenodd">
        <g id="codewhiz-final" transform="translate(-1427.000000, -568.000000)" fill-rule="nonzero">
            <g id="codewhiz" transform="translate(1427.000000, 568.250000)">
                <path d="M204,178 C201.666655,180.833347 199.416677,183.083325 197.25,184.75 C195.083323,186.416675 192.00002,187.25 188,187.25 C184.166647,187.25 180.708349,186.333342 177.625,184.5 C174.541651,182.666657 171.083353,180.625011 167.25,178.375 C163.416647,176.124989 158.916692,174.083342 153.75,172.25 C148.583308,170.416657 142.166705,169.5 134.5,169.5 C124.999953,169.5 116.791701,171.249982 109.875,174.75 C102.958299,178.250018 97.2500225,183.249967 92.75,189.75 C88.2499775,196.250032 84.9166775,204.208286 82.75,213.625 C80.5833225,223.041714 79.5,233.666608 79.5,245.5 C79.5,270.333458 84.2916187,289.4166 93.875,302.75 C103.458381,316.0834 116.666582,322.75 133.5,322.75 C142.500045,322.75 149.624974,321.625011 154.875,319.375 C160.125026,317.124989 164.583315,314.625014 168.25,311.875 C171.916685,309.124986 175.291651,306.583345 178.375,304.25 C181.458349,301.916655 185.33331,300.75 190,300.75 C196.166698,300.75 200.833318,302.999977 204,307.5 L226.5,335.25 C218.49996,344.416713 210.083378,351.874971 201.25,357.625 C192.416622,363.375029 183.375046,367.874984 174.125,371.125 C164.874954,374.375016 155.58338,376.624994 146.25,377.875 C136.91662,379.125006 127.833378,379.75 119,379.75 C103.166588,379.75 88.0417387,376.75003 73.625,370.75 C59.2082613,364.74997 46.5417212,356.041724 35.625,344.625 C24.7082788,333.208276 16.0416988,319.16675 9.625,302.5 C3.20830125,285.83325 0,266.83344 0,245.5 C0,226.83324 2.79163875,209.375081 8.375,193.125 C13.9583613,176.874919 22.2082788,162.791726 33.125,150.875 C44.0417212,138.958274 57.5415862,129.583368 73.625,122.75 C89.7084138,115.916632 108.333228,112.5 129.5,112.5 C149.833435,112.5 167.66659,115.749968 183,122.25 C198.33341,128.750032 212.166605,138.249937 224.5,150.75 L204,178 Z M375.5,112.5 C395.166765,112.5 413.083253,115.583302 429.25,121.75 C445.416747,127.916698 459.291609,136.749942 470.875,148.25 C482.458391,159.750058 491.458301,173.708251 497.875,190.125 C504.291699,206.541749 507.5,224.999897 507.5,245.5 C507.5,266.16677 504.291699,284.791584 497.875,301.375 C491.458301,317.958416 482.458391,332.041609 470.875,343.625 C459.291609,355.208391 445.416747,364.124969 429.25,370.375 C413.083253,376.625031 395.166765,379.75 375.5,379.75 C355.666567,379.75 337.625081,376.625031 321.375,370.375 C305.124919,364.124969 291.125059,355.208391 279.375,343.625 C267.624941,332.041609 258.541699,317.958416 252.125,301.375 C245.708301,284.791584 242.5,266.16677 242.5,245.5 C242.5,224.999897 245.708301,206.541749 252.125,190.125 C258.541699,173.708251 267.624941,159.750058 279.375,148.25 C291.125059,136.749942 305.124919,127.916698 321.375,121.75 C337.625081,115.583302 355.666567,112.5 375.5,112.5 Z M375.5,322.25 C393.333422,322.25 406.458291,315.958396 414.875,303.375 C423.291709,290.791604 427.5,271.666795 427.5,246 C427.5,220.333205 423.291709,201.250063 414.875,188.75 C406.458291,176.249937 393.333422,170 375.5,170 C357.166575,170 343.750043,176.249937 335.25,188.75 C326.749957,201.250063 322.5,220.333205 322.5,246 C322.5,271.666795 326.749957,290.791604 335.25,303.375 C343.750043,315.958396 357.166575,322.25 375.5,322.25 Z M732,375.75 C727.166642,375.75 723.125016,374.666677 719.875,372.5 C716.624984,370.333323 714.33334,367.083355 713,362.75 L707,343 C701.833308,348.500027 696.416695,353.499977 690.75,358 C685.083305,362.500023 678.958366,366.374984 672.375,369.625 C665.791634,372.875016 658.708371,375.374991 651.125,377.125 C643.541629,378.875009 635.333378,379.75 626.5,379.75 C612.999932,379.75 600.500057,376.75003 589,370.75 C577.499943,364.74997 567.583375,356.08339 559.25,344.75 C550.916625,333.41661 544.375024,319.541749 539.625,303.125 C534.874976,286.708251 532.5,268.000105 532.5,247 C532.5,227.66657 535.16664,209.708416 540.5,193.125 C545.83336,176.541584 553.374951,162.208394 563.125,150.125 C572.875049,138.041606 584.583265,128.583368 598.25,121.75 C611.916735,114.916632 626.999918,111.5 643.5,111.5 C656.8334,111.5 668.124954,113.458314 677.375,117.375 C686.625046,121.291686 694.999963,126.416635 702.5,132.75 L702.5,1.5 L780,1.5 L780,375.75 L732,375.75 Z M653.5,320.25 C659.166695,320.25 664.291644,319.708339 668.875,318.625 C673.458356,317.541661 677.666648,316 681.5,314 C685.333352,312 688.958316,309.500015 692.375,306.5 C695.791684,303.499985 699.16665,300.00002 702.5,296 L702.5,186 C696.49997,179.499967 690.125034,174.958346 683.375,172.375 C676.624966,169.791654 669.500037,168.5 662,168.5 C654.833298,168.5 648.25003,169.916653 642.25,172.75 C636.24997,175.583347 631.041689,180.124969 626.625,186.375 C622.208311,192.625031 618.750013,200.74995 616.25,210.75 C613.749987,220.75005 612.5,232.833263 612.5,247 C612.5,260.666735 613.5,272.16662 615.5,281.5 C617.5,290.83338 620.291649,298.374971 623.875,304.125 C627.458351,309.875029 631.749975,313.999987 636.75,316.5 C641.750025,319.000013 647.333303,320.25 653.5,320.25 Z M951,112.5 C968.166753,112.5 983.874929,115.16664 998.125,120.5 C1012.37507,125.83336 1024.62495,133.583282 1034.875,143.75 C1045.12505,153.916718 1053.12497,166.374926 1058.875,181.125 C1064.62503,195.875074 1067.5,212.58324 1067.5,231.25 C1067.5,237.083363 1067.25,241.833315 1066.75,245.5 C1066.25,249.166685 1065.33334,252.083323 1064,254.25 C1062.66666,256.416677 1060.87501,257.916663 1058.625,258.75 C1056.37499,259.583337 1053.50002,260 1050,260 L900.5,260 C903.000012,281.666775 909.58328,297.374951 920.25,307.125 C930.91672,316.875049 944.666583,321.75 961.5,321.75 C970.500045,321.75 978.249967,320.666677 984.75,318.5 C991.250033,316.333323 997.041641,313.91668 1002.125,311.25 C1007.20836,308.58332 1011.87498,306.166677 1016.125,304 C1020.37502,301.833323 1024.83331,300.75 1029.5,300.75 C1035.6667,300.75 1040.33332,302.999977 1043.5,307.5 L1066,335.25 C1057.99996,344.416713 1049.37505,351.874971 1040.125,357.625 C1030.87495,363.375029 1021.37505,367.874984 1011.625,371.125 C1001.87495,374.375016 992.125049,376.624994 982.375,377.875 C972.624951,379.125006 963.333378,379.75 954.5,379.75 C936.333242,379.75 919.291746,376.791696 903.375,370.875 C887.458254,364.958304 873.541726,356.166725 861.625,344.5 C849.708274,332.833275 840.291701,318.33342 833.375,301 C826.458299,283.66658 823,263.500115 823,240.5 C823,223.16658 825.958304,206.750077 831.875,191.25 C837.791696,175.749923 846.291611,162.166725 857.375,150.5 C868.458389,138.833275 881.874921,129.583368 897.625,122.75 C913.375079,115.916632 931.166567,112.5 951,112.5 Z M952.5,166 C937.666592,166 926.083375,170.208291 917.75,178.625 C909.416625,187.041709 903.91668,199.166587 901.25,215 L998,215 C998,208.833302 997.208341,202.833363 995.625,197 C994.041659,191.166637 991.458351,185.958356 987.875,181.375 C984.291649,176.791644 979.583363,173.083347 973.75,170.25 C967.916637,167.416653 960.833375,166 952.5,166 Z" id="code" fill="#FC6B5A"></path>
                <path d="M1082,116.5 L1144,116.5 C1149.50003,116.5 1154.24998,117.749987 1158.25,120.25 C1162.25002,122.750013 1164.66666,125.99998 1165.5,130 L1191.5,246.25 C1193.5,255.083377 1195.33333,263.666625 1197,272 C1198.66667,280.333375 1200.16666,288.583292 1201.5,296.75 C1203.83335,288.583292 1206.29165,280.375041 1208.875,272.125 C1211.45835,263.874959 1213.99999,255.250045 1216.5,246.25 L1249,129.75 C1250,125.916647 1252.41665,122.708346 1256.25,120.125 C1260.08335,117.541654 1264.49997,116.25 1269.5,116.25 L1304,116.25 C1309.50003,116.25 1314.20831,117.541654 1318.125,120.125 C1322.04169,122.708346 1324.5,125.916647 1325.5,129.75 L1356.5,246.25 C1358.83335,255.083377 1361.20832,263.666625 1363.625,272 C1366.04168,280.333375 1368.33332,288.749957 1370.5,297.25 C1371.83334,288.916625 1373.45832,280.625041 1375.375,272.375 C1377.29168,264.124959 1379.33332,255.416713 1381.5,246.25 L1409,130 C1409.83334,125.99998 1412.20831,122.750013 1416.125,120.25 C1420.04169,117.749987 1424.49997,116.5 1429.5,116.5 L1488.5,116.5 L1408,375.75 L1345,375.75 C1341.66665,375.75 1338.83335,374.75 1336.5,372.75 C1334.16665,370.75 1332.33334,367.41669 1331,362.75 L1294,233.5 C1292.33333,227.666637 1290.75001,221.916695 1289.25,216.25 C1287.74999,210.583305 1286.41667,204.916695 1285.25,199.25 C1284.08333,205.083363 1282.79167,210.874971 1281.375,216.625 C1279.95833,222.375029 1278.33334,228.166637 1276.5,234 L1239,362.75 C1236.49999,371.41671 1231.00004,375.75 1222.5,375.75 L1162.5,375.75 L1082,116.5 Z M1518.5,375.75 L1518.5,1.5 L1596,1.5 L1596,139.25 C1605.33338,131.24996 1615.45828,124.791691 1626.375,119.875 C1637.29172,114.958309 1650.33326,112.5 1665.5,112.5 C1679.66674,112.5 1692.20828,114.958309 1703.125,119.875 C1714.04172,124.791691 1723.24996,131.624956 1730.75,140.375 C1738.25004,149.125044 1743.91665,159.541606 1747.75,171.625 C1751.58335,183.708394 1753.5,196.833263 1753.5,211 L1753.5,375.75 L1676,375.75 L1676,211 C1676,198.33327 1673.08336,188.458369 1667.25,181.375 C1661.41664,174.291631 1652.83339,170.75 1641.5,170.75 C1632.99996,170.75 1625.00004,172.583315 1617.5,176.25 C1609.99996,179.916685 1602.83337,184.833302 1596,191 L1596,375.75 L1518.5,375.75 Z M1888.5,116.5 L1888.5,375.75 L1811,375.75 L1811,116.5 L1888.5,116.5 Z M1897.5,45.5 C1897.5,51.6666975 1896.25001,57.4583062 1893.75,62.875 C1891.24999,68.2916938 1887.83335,73.0416462 1883.5,77.125 C1879.16665,81.2083538 1874.12503,84.4583212 1868.375,86.875 C1862.62497,89.2916788 1856.50003,90.5 1850,90.5 C1843.66664,90.5 1837.75003,89.2916788 1832.25,86.875 C1826.74997,84.4583212 1821.87502,81.2083538 1817.625,77.125 C1813.37498,73.0416462 1810.04168,68.2916938 1807.625,62.875 C1805.20832,57.4583062 1804,51.6666975 1804,45.5 C1804,39.166635 1805.20832,33.2500275 1807.625,27.75 C1810.04168,22.2499725 1813.37498,17.4166875 1817.625,13.25 C1821.87502,9.0833125 1826.74997,5.833345 1832.25,3.5 C1837.75003,1.166655 1843.66664,0 1850,0 C1856.50003,0 1862.62497,1.166655 1868.375,3.5 C1874.12503,5.833345 1879.16665,9.0833125 1883.5,13.25 C1887.83335,17.4166875 1891.24999,22.2499725 1893.75,27.75 C1896.25001,33.2500275 1897.5,39.166635 1897.5,45.5 Z M2144.5,147.5 C2144.5,152.83336 2143.50001,157.916643 2141.5,162.75 C2139.49999,167.583357 2137.16668,171.749982 2134.5,175.25 L2026.25,318.25 L2142,318.25 L2142,375.75 L1937,375.75 L1937,344.25 C1937,341.083318 1937.87499,337.125024 1939.625,332.375 C1941.37501,327.624976 1943.83332,323.083355 1947,318.75 L2056.25,174 L1944,174 L1944,116.5 L2144.5,116.5 L2144.5,147.5 Z" id="whiz" fill="#063DAE"></path>
            </g>
        </g>
    </g>
</svg>